<?xml version="1.0" standalone="no"?><!DOCTYPE svg PUBLIC "-//W3C//DTD SVG 1.1//EN" "http://www.w3.org/Graphics/SVG/1.1/DTD/svg11.dtd"><svg t="1588146462117" class="icon" viewBox="0 0 1024 1024" version="1.1" xmlns="http://www.w3.org/2000/svg" p-id="1440" xmlns:xlink="http://www.w3.org/1999/xlink" width="128" height="128"><defs><style type="text/css"></style></defs><path d="M897.219048 414.47619h-9.752381c0-12.190476 2.438095-24.380952 2.438095-36.571428C889.904762 168.228571 721.67619 0 512 0S134.095238 168.228571 134.095238 377.904762c0 12.190476 0 24.380952 2.438095 36.571428h-9.752381C70.704762 414.47619 24.380952 460.8 24.380952 516.87619V828.952381c0 107.27619 87.771429 195.047619 195.047619 195.047619h585.142858c107.27619 0 195.047619-87.771429 195.047619-195.047619V516.87619c0-56.07619-46.32381-102.4-102.4-102.4zM207.238095 377.904762C207.238095 209.67619 343.771429 73.142857 512 73.142857s304.761905 136.533333 304.761905 304.761905c0 12.190476 0 24.380952-2.438095 36.571428H209.67619c-2.438095-12.190476-2.438095-24.380952-2.438095-36.571428zM926.47619 828.952381c0 68.266667-53.638095 121.904762-121.904761 121.904762H219.428571c-68.266667 0-121.904762-53.638095-121.904761-121.904762V516.87619c0-17.066667 12.190476-29.257143 29.257142-29.257142h770.438096c17.066667 0 29.257143 12.190476 29.257142 29.257142V828.952381z" fill="#999999" p-id="1441"></path><path d="M514.438095 853.333333H512c-19.504762 0-34.133333-14.628571-34.133333-34.133333v-197.485714c0-19.504762 14.628571-34.133333 34.133333-34.133334h2.438095c19.504762 0 34.133333 14.628571 34.133334 34.133334v197.485714c0 19.504762-14.628571 34.133333-34.133334 34.133333z" fill="#999999" p-id="1442"></path></svg>