<?xml version="1.0" standalone="no"?><!DOCTYPE svg PUBLIC "-//W3C//DTD SVG 1.1//EN" "http://www.w3.org/Graphics/SVG/1.1/DTD/svg11.dtd"><svg t="1588146437415" class="icon" viewBox="0 0 1024 1024" version="1.1" xmlns="http://www.w3.org/2000/svg" p-id="1259" xmlns:xlink="http://www.w3.org/1999/xlink" width="128" height="128"><defs><style type="text/css"></style></defs><path d="M512.02 615.980383c-169.854175 0-308.025691-138.146516-308.025691-308.000691C203.999309 138.125516 342.171824 0 512.021 0c169.828176 0 307.999691 138.146516 307.999691 308.000691 0.005 169.854175-138.166516 307.979692-308.000691 307.979692z m0-544.055156c-130.163602 0-236.054464 105.910862-236.054464 236.054465 0 130.138602 105.910862 236.055464 236.054464 236.055464 130.144602 0 236.035464-105.915862 236.035464-236.055464 0-130.143602-105.870863-236.054464-236.035464-236.054465z" fill="#999999" p-id="1260"></path><path d="M920.028617 1023.989a35.957614 35.957614 0 0 1-35.972614-35.972613c0-205.135796-166.900207-372.036004-372.036003-372.036004-205.155796 0-372.036004 166.900207-372.036004 372.036004A35.993613 35.993613 0 0 1 103.987383 1023.989a35.957614 35.957614 0 0 1-35.972614-35.972613c0-244.80037 199.18086-443.961231 444.001231-443.961231 244.80037 0 443.961231 199.160861 443.961231 443.961231A35.931614 35.931614 0 0 1 920.028617 1023.989z" fill="#999999" p-id="1261"></path></svg>