<?xml version="1.0" standalone="no"?><!DOCTYPE svg PUBLIC "-//W3C//DTD SVG 1.1//EN" "http://www.w3.org/Graphics/SVG/1.1/DTD/svg11.dtd"><svg t="1587367936104" class="icon" viewBox="0 0 1024 1024" version="1.1" xmlns="http://www.w3.org/2000/svg" p-id="4227" xmlns:xlink="http://www.w3.org/1999/xlink" width="128" height="128"><defs><style type="text/css"></style></defs><path d="M248.985754 562.401363l433.21012 440.055578a72.279984 72.279984 0 0 0 102.144973 0.805348 57.179709 57.179709 0 0 0 0.604011-80.534802l-454.350505-461.531524a57.179709 57.179709 0 0 0-80.803251-0.939573A72.279984 72.279984 0 0 0 248.985754 562.401363z" fill="#ffffff" p-id="4228"></path><path d="M340.526979 552.401625l440.055577-433.143007A72.279984 72.279984 0 0 0 781.387904 17.046533a57.179709 57.179709 0 0 0-80.534801-0.604011L238.986017 470.725914a57.112597 57.112597 0 0 0-0.604011 80.870363 72.279984 72.279984 0 0 0 102.144973 0.805348z" fill="#ffffff" p-id="4229"></path></svg>