<?xml version="1.0" standalone="no"?><!DOCTYPE svg PUBLIC "-//W3C//DTD SVG 1.1//EN" "http://www.w3.org/Graphics/SVG/1.1/DTD/svg11.dtd"><svg t="1571718084542" class="icon" viewBox="0 0 3200 1024" version="1.1" xmlns="http://www.w3.org/2000/svg" p-id="2563" xmlns:xlink="http://www.w3.org/1999/xlink" width="625" height="200"><defs><style type="text/css"></style></defs><path d="M1028.096 480.384a32392.832 32392.832 0 0 1 761.856-285.568c-155.648-21.888-294.144-41.984-416.512-59.648-416.896-60.16-646.656-93.44-785.536-93.44-58.88 0-101.376 6.144-134.016 19.2-47.36 18.688-93.952 38.912-139.904 60.672l-79.872 38.4 83.456 31.104c5.504 1.92 543.232 201.856 662.912 247.68 25.728 9.856 39.68 25.856 47.616 41.6z" fill="#d5e8fc" p-id="2564"></path><path d="M3146.24 126.336c-20.736-77.824-120.704-90.624-361.984-121.472a180.608 180.608 0 0 0-23.04-1.28c-250.88 0-1377.408 431.36-1953.92 658.432-26.112-9.728-51.584-19.2-75.52-27.904C501.76 548.736 374.912 501.76 273.28 501.76a265.344 265.344 0 0 0-85.248 13.056l-2.304 0.896-133.888 62.336 489.088 325.12 264.192-6.144c141.184-3.84 496.128-9.472 961.024-160.768 227.84-74.112 344.064-112.896 754.304-253.44 558.336-191.104 648.96-270.08 625.92-356.48z" fill="#d5e8fc" p-id="2565"></path></svg>